<mxfile host="app.diagrams.net" modified="2020-10-28T11:03:30.981Z" agent="5.0 (Windows NT 10.0; Win64; x64) AppleWebKit/537.36 (KHTML, like Gecko) Chrome/86.0.4240.111 Safari/537.36" etag="FsPQHMoi4ur0TsV7BN0p" version="13.8.5" type="github">
  <diagram id="XDAy54rnKY6pr1T5lqs-" name="Page-1">
    <mxGraphModel dx="1108" dy="450" grid="1" gridSize="10" guides="1" tooltips="1" connect="1" arrows="1" fold="1" page="1" pageScale="1" pageWidth="850" pageHeight="1100" math="0" shadow="0">
      <root>
        <mxCell id="0" />
        <mxCell id="1" parent="0" />
        <mxCell id="7gb-hQKA5cgf2Fax-7DE-17" value="" style="edgeStyle=orthogonalEdgeStyle;rounded=0;orthogonalLoop=1;jettySize=auto;html=1;" edge="1" parent="1" source="7gb-hQKA5cgf2Fax-7DE-14" target="7gb-hQKA5cgf2Fax-7DE-16">
          <mxGeometry relative="1" as="geometry" />
        </mxCell>
        <mxCell id="7gb-hQKA5cgf2Fax-7DE-14" value="" style="rounded=0;whiteSpace=wrap;html=1;" vertex="1" parent="1">
          <mxGeometry x="303" y="10" width="340" height="220" as="geometry" />
        </mxCell>
        <mxCell id="7putYLGKNxdWu60KOo2l-1" value="AccountDataDivID.asp(HEMEL)" style="shape=document;whiteSpace=wrap;html=1;boundedLbl=1;" parent="1" vertex="1">
          <mxGeometry x="40" y="280" width="210" height="100" as="geometry" />
        </mxCell>
        <mxCell id="7putYLGKNxdWu60KOo2l-8" style="edgeStyle=orthogonalEdgeStyle;rounded=0;orthogonalLoop=1;jettySize=auto;html=1;exitX=1;exitY=0.5;exitDx=0;exitDy=0;entryX=0;entryY=0.5;entryDx=0;entryDy=0;" parent="1" source="7putYLGKNxdWu60KOo2l-4" target="7putYLGKNxdWu60KOo2l-5" edge="1">
          <mxGeometry relative="1" as="geometry" />
        </mxCell>
        <mxCell id="68JDM1jY-A9UBfmqLfwj-3" style="edgeStyle=orthogonalEdgeStyle;rounded=0;orthogonalLoop=1;jettySize=auto;html=1;exitX=1;exitY=0;exitDx=0;exitDy=0;entryX=0;entryY=0.5;entryDx=0;entryDy=0;" parent="1" source="7putYLGKNxdWu60KOo2l-4" target="68JDM1jY-A9UBfmqLfwj-1" edge="1">
          <mxGeometry relative="1" as="geometry" />
        </mxCell>
        <mxCell id="7putYLGKNxdWu60KOo2l-4" value="PHConnectUniversal.COM&lt;br&gt;&lt;b&gt;GetInvoices&lt;/b&gt;" style="rounded=0;whiteSpace=wrap;html=1;" parent="1" vertex="1">
          <mxGeometry x="55" y="460" width="155" height="60" as="geometry" />
        </mxCell>
        <mxCell id="7putYLGKNxdWu60KOo2l-9" style="edgeStyle=orthogonalEdgeStyle;rounded=0;orthogonalLoop=1;jettySize=auto;html=1;exitX=1;exitY=0.5;exitDx=0;exitDy=0;entryX=0;entryY=0.5;entryDx=0;entryDy=0;" parent="1" source="7putYLGKNxdWu60KOo2l-5" target="7putYLGKNxdWu60KOo2l-6" edge="1">
          <mxGeometry relative="1" as="geometry" />
        </mxCell>
        <mxCell id="7putYLGKNxdWu60KOo2l-5" value="PHConnectUniversalHEMEL&lt;br&gt;&lt;b&gt;GetInvoices&lt;/b&gt;" style="rounded=0;whiteSpace=wrap;html=1;" parent="1" vertex="1">
          <mxGeometry x="360" y="460" width="170" height="60" as="geometry" />
        </mxCell>
        <mxCell id="7putYLGKNxdWu60KOo2l-6" value="JDE Stored Procedure&lt;br&gt;&lt;b&gt;PH03127SP&lt;/b&gt;&amp;nbsp;" style="shape=process;whiteSpace=wrap;html=1;backgroundOutline=1;" parent="1" vertex="1">
          <mxGeometry x="600" y="460" width="200" height="60" as="geometry" />
        </mxCell>
        <mxCell id="7putYLGKNxdWu60KOo2l-7" value="" style="endArrow=classic;html=1;exitX=0.486;exitY=0.85;exitDx=0;exitDy=0;exitPerimeter=0;" parent="1" source="7putYLGKNxdWu60KOo2l-1" target="7putYLGKNxdWu60KOo2l-4" edge="1">
          <mxGeometry width="50" height="50" relative="1" as="geometry">
            <mxPoint x="420" y="500" as="sourcePoint" />
            <mxPoint x="470" y="450" as="targetPoint" />
          </mxGeometry>
        </mxCell>
        <mxCell id="7putYLGKNxdWu60KOo2l-14" value="STOREDPROC" style="text;html=1;align=center;verticalAlign=middle;resizable=0;points=[];autosize=1;" parent="1" vertex="1">
          <mxGeometry x="235" y="470" width="100" height="20" as="geometry" />
        </mxCell>
        <mxCell id="68JDM1jY-A9UBfmqLfwj-4" style="edgeStyle=orthogonalEdgeStyle;rounded=0;orthogonalLoop=1;jettySize=auto;html=1;exitX=1;exitY=0.5;exitDx=0;exitDy=0;entryX=0;entryY=0.5;entryDx=0;entryDy=0;" parent="1" source="68JDM1jY-A9UBfmqLfwj-1" target="68JDM1jY-A9UBfmqLfwj-2" edge="1">
          <mxGeometry relative="1" as="geometry" />
        </mxCell>
        <mxCell id="68JDM1jY-A9UBfmqLfwj-1" value="&lt;div&gt;&lt;br&gt;&lt;/div&gt;&lt;div&gt;&lt;b&gt;comtifunctions.GetInvoices&lt;/b&gt;&lt;/div&gt;&lt;div&gt;&lt;br&gt;&lt;/div&gt;" style="rounded=0;whiteSpace=wrap;html=1;" parent="1" vertex="1">
          <mxGeometry x="360" y="350" width="160" height="60" as="geometry" />
        </mxCell>
        <mxCell id="68JDM1jY-A9UBfmqLfwj-2" value="&lt;div&gt;&lt;span&gt;COMTI-AR_Customer_Account&lt;/span&gt;&lt;br&gt;&lt;/div&gt;&lt;div&gt;Getinvoices&lt;/div&gt;" style="rounded=0;whiteSpace=wrap;html=1;" parent="1" vertex="1">
          <mxGeometry x="590" y="350" width="210" height="60" as="geometry" />
        </mxCell>
        <mxCell id="68JDM1jY-A9UBfmqLfwj-5" value="COMTI" style="text;html=1;align=center;verticalAlign=middle;resizable=0;points=[];autosize=1;" parent="1" vertex="1">
          <mxGeometry x="265" y="360" width="50" height="20" as="geometry" />
        </mxCell>
        <mxCell id="7gb-hQKA5cgf2Fax-7DE-11" value="" style="edgeStyle=orthogonalEdgeStyle;rounded=0;orthogonalLoop=1;jettySize=auto;html=1;" edge="1" parent="1" source="7gb-hQKA5cgf2Fax-7DE-1" target="7gb-hQKA5cgf2Fax-7DE-4">
          <mxGeometry relative="1" as="geometry" />
        </mxCell>
        <mxCell id="7gb-hQKA5cgf2Fax-7DE-1" value="AccountList.asp" style="shape=document;whiteSpace=wrap;html=1;boundedLbl=1;" vertex="1" parent="1">
          <mxGeometry x="38" y="20" width="210" height="100" as="geometry" />
        </mxCell>
        <mxCell id="7gb-hQKA5cgf2Fax-7DE-15" value="" style="edgeStyle=orthogonalEdgeStyle;rounded=0;orthogonalLoop=1;jettySize=auto;html=1;" edge="1" parent="1" source="7gb-hQKA5cgf2Fax-7DE-4" target="7gb-hQKA5cgf2Fax-7DE-14">
          <mxGeometry relative="1" as="geometry" />
        </mxCell>
        <mxCell id="7gb-hQKA5cgf2Fax-7DE-4" value="&lt;div&gt;PhConnectUniversal.GetAccountXML&lt;/div&gt;&lt;div&gt;&lt;span&gt;Using CustNO&lt;/span&gt;&lt;br&gt;&lt;/div&gt;" style="rounded=0;whiteSpace=wrap;html=1;" vertex="1" parent="1">
          <mxGeometry x="33" y="190" width="220" height="60" as="geometry" />
        </mxCell>
        <mxCell id="7gb-hQKA5cgf2Fax-7DE-5" value="&lt;div&gt;PHConnectUniversalHEMEL.GetAccount&lt;/div&gt;&lt;div&gt;P03203SP&lt;/div&gt;" style="rounded=0;whiteSpace=wrap;html=1;" vertex="1" parent="1">
          <mxGeometry x="398" y="140" width="230" height="60" as="geometry" />
        </mxCell>
        <mxCell id="7gb-hQKA5cgf2Fax-7DE-7" value="COMTIFunctions.GetAccount&lt;br&gt;COMTI&amp;nbsp; AR_Customer_Account GetAccount" style="rounded=0;whiteSpace=wrap;html=1;" vertex="1" parent="1">
          <mxGeometry x="398" y="40" width="230" height="60" as="geometry" />
        </mxCell>
        <mxCell id="7gb-hQKA5cgf2Fax-7DE-12" value="&lt;font style=&quot;font-size: 35px&quot;&gt;+&lt;/font&gt;" style="text;html=1;strokeColor=none;fillColor=none;align=center;verticalAlign=middle;whiteSpace=wrap;rounded=0;strokeWidth=5;" vertex="1" parent="1">
          <mxGeometry x="498" y="110" width="40" height="20" as="geometry" />
        </mxCell>
        <mxCell id="7gb-hQKA5cgf2Fax-7DE-16" value="Display in Screen" style="rounded=1;whiteSpace=wrap;html=1;strokeWidth=5;" vertex="1" parent="1">
          <mxGeometry x="698" y="90" width="120" height="60" as="geometry" />
        </mxCell>
        <mxCell id="7gb-hQKA5cgf2Fax-7DE-18" value="AccountData.asp(MSS)" style="shape=document;whiteSpace=wrap;html=1;boundedLbl=1;" vertex="1" parent="1">
          <mxGeometry x="70" y="540" width="210" height="100" as="geometry" />
        </mxCell>
        <mxCell id="7gb-hQKA5cgf2Fax-7DE-20" style="edgeStyle=orthogonalEdgeStyle;rounded=0;orthogonalLoop=1;jettySize=auto;html=1;exitX=1;exitY=0;exitDx=0;exitDy=0;entryX=0;entryY=0.5;entryDx=0;entryDy=0;" edge="1" parent="1" source="7gb-hQKA5cgf2Fax-7DE-21" target="7gb-hQKA5cgf2Fax-7DE-25">
          <mxGeometry relative="1" as="geometry" />
        </mxCell>
        <mxCell id="7gb-hQKA5cgf2Fax-7DE-21" value="PHConnectUniversal.COM&lt;br&gt;&lt;b&gt;GetARXML&lt;/b&gt;" style="rounded=0;whiteSpace=wrap;html=1;" vertex="1" parent="1">
          <mxGeometry x="85" y="720" width="155" height="60" as="geometry" />
        </mxCell>
        <mxCell id="7gb-hQKA5cgf2Fax-7DE-23" value="" style="endArrow=classic;html=1;exitX=0.486;exitY=0.85;exitDx=0;exitDy=0;exitPerimeter=0;" edge="1" parent="1" source="7gb-hQKA5cgf2Fax-7DE-18" target="7gb-hQKA5cgf2Fax-7DE-21">
          <mxGeometry width="50" height="50" relative="1" as="geometry">
            <mxPoint x="450" y="760" as="sourcePoint" />
            <mxPoint x="500" y="710" as="targetPoint" />
          </mxGeometry>
        </mxCell>
        <mxCell id="7gb-hQKA5cgf2Fax-7DE-28" value="" style="edgeStyle=orthogonalEdgeStyle;rounded=0;orthogonalLoop=1;jettySize=auto;html=1;" edge="1" parent="1" source="7gb-hQKA5cgf2Fax-7DE-25" target="7gb-hQKA5cgf2Fax-7DE-27">
          <mxGeometry relative="1" as="geometry" />
        </mxCell>
        <mxCell id="7gb-hQKA5cgf2Fax-7DE-25" value="&lt;div&gt;COMTIFunctions.GetAR&lt;br&gt;&lt;/div&gt;" style="rounded=0;whiteSpace=wrap;html=1;" vertex="1" parent="1">
          <mxGeometry x="390" y="610" width="160" height="60" as="geometry" />
        </mxCell>
        <mxCell id="7gb-hQKA5cgf2Fax-7DE-26" value="COMTI" style="text;html=1;align=center;verticalAlign=middle;resizable=0;points=[];autosize=1;" vertex="1" parent="1">
          <mxGeometry x="295" y="620" width="50" height="20" as="geometry" />
        </mxCell>
        <mxCell id="7gb-hQKA5cgf2Fax-7DE-27" value="&lt;div&gt;&lt;span&gt;COMTI-&lt;/span&gt;&lt;/div&gt;PHConnectUniversal&lt;br&gt;&lt;br&gt;&lt;div&gt;&lt;b&gt;GetAR&lt;/b&gt;&lt;/div&gt;" style="rounded=0;whiteSpace=wrap;html=1;" vertex="1" parent="1">
          <mxGeometry x="570" y="610" width="200" height="60" as="geometry" />
        </mxCell>
      </root>
    </mxGraphModel>
  </diagram>
</mxfile>
